HIERARCHY
ROOT mixamorig:Hips
{
	OFFSET 0.00 0.00 0.00
	CHANNELS 6 Xposition Yposition Zposition Zrotation Yrotation Xrotation
	JOINT mixamorig:Spine
	{
		OFFSET	0.0125	10.4452	-0.9963
		CHANNELS 3 Zrotation Yrotation Xrotation
		JOINT mixamorig:Spine1
		{
			OFFSET	0.0145	12.1861	-1.1623
			CHANNELS 3 Zrotation Yrotation Xrotation
			JOINT mixamorig:Spine2
			{
				OFFSET	0.0166	13.9270	-1.3284
				CHANNELS 3 Zrotation Yrotation Xrotation
				JOINT mixamorig:Neck
				{
					OFFSET	0.0187	15.6679	-1.4944
					CHANNELS 3 Zrotation Yrotation Xrotation
					JOINT mixamorig:Head
					{
						OFFSET	-0.0000	7.0878	0.8887
						CHANNELS 3 Zrotation Yrotation Xrotation
						End Site
						{
							OFFSET -0.0000 21.3244 2.6737
						}
					}
				}
				JOINT mixamorig:LeftShoulder
				{
					OFFSET	6.2331	12.5732	-1.4620
					CHANNELS 3 Zrotation Yrotation Xrotation
					JOINT mixamorig:LeftArm
					{
						OFFSET	12.4288	-6.1895	0.0647
						CHANNELS 3 Zrotation Yrotation Xrotation
						JOINT mixamorig:LeftForeArm
						{
							OFFSET	12.5822	-17.6989	-0.0651
							CHANNELS 3 Zrotation Yrotation Xrotation
							JOINT mixamorig:LeftHand
							{
								OFFSET	10.9147	-21.0687	11.6035
								CHANNELS 3 Zrotation Yrotation Xrotation
								JOINT mixamorig:LeftHandThumb1
								{
									OFFSET	-1.7358	-3.6666	2.6651
									CHANNELS 3 Zrotation Yrotation Xrotation
									JOINT mixamorig:LeftHandThumb2
									{
										OFFSET	-1.3886	-2.9333	2.1321
										CHANNELS 3 Zrotation Yrotation Xrotation
										JOINT mixamorig:LeftHandThumb3
										{
											OFFSET	-1.7918	-3.3945	1.6896
											CHANNELS 3 Zrotation Yrotation Xrotation
											End Site
											{
												OFFSET -1.1716 -2.6948 1.2270
											}
										}
									}
								}
								JOINT mixamorig:LeftHandIndex1
								{
									OFFSET	1.2042	-11.6606	7.5887
									CHANNELS 3 Zrotation Yrotation Xrotation
									JOINT mixamorig:LeftHandIndex2
									{
										OFFSET	-0.0885	-2.2672	1.0042
										CHANNELS 3 Zrotation Yrotation Xrotation
										JOINT mixamorig:LeftHandIndex3
										{
											OFFSET	-0.3002	-1.9399	0.5096
											CHANNELS 3 Zrotation Yrotation Xrotation
											End Site
											{
												OFFSET -0.2176 -2.6233 0.6157
											}
										}
									}
								}
								JOINT mixamorig:LeftHandMiddle1
								{
									OFFSET	3.0635	-12.2364	5.5160
									CHANNELS 3 Zrotation Yrotation Xrotation
									JOINT mixamorig:LeftHandMiddle2
									{
										OFFSET	0.4236	-2.6124	0.6959
										CHANNELS 3 Zrotation Yrotation Xrotation
										JOINT mixamorig:LeftHandMiddle3
										{
											OFFSET	-0.0346	-2.2988	0.2871
											CHANNELS 3 Zrotation Yrotation Xrotation
											End Site
											{
												OFFSET 0.2796 -2.9102 0.5104
											}
										}
									}
								}
								JOINT mixamorig:LeftHandRing1
								{
									OFFSET	4.3250	-12.3373	2.7720
									CHANNELS 3 Zrotation Yrotation Xrotation
									JOINT mixamorig:LeftHandRing2
									{
										OFFSET	0.0343	-2.6042	-0.1448
										CHANNELS 3 Zrotation Yrotation Xrotation
										JOINT mixamorig:LeftHandRing3
										{
											OFFSET	-0.4080	-2.1150	-0.2682
											CHANNELS 3 Zrotation Yrotation Xrotation
											End Site
											{
												OFFSET -0.1807 -2.8052 -0.0224
											}
										}
									}
								}
								JOINT mixamorig:LeftHandPinky1
								{
									OFFSET	4.5316	-12.9281	-0.0800
									CHANNELS 3 Zrotation Yrotation Xrotation
									JOINT mixamorig:LeftHandPinky2
									{
										OFFSET	-0.2254	-1.6990	-0.6318
										CHANNELS 3 Zrotation Yrotation Xrotation
										JOINT mixamorig:LeftHandPinky3
										{
											OFFSET	-0.4223	-1.3628	-0.4724
											CHANNELS 3 Zrotation Yrotation Xrotation
											End Site
											{
												OFFSET -0.7253 -1.5757 -0.7080
											}
										}
									}
								}
							}
						}
					}
				}
				JOINT mixamorig:RightShoulder
				{
					OFFSET	-6.1994	12.5731	-1.5268
					CHANNELS 3 Zrotation Yrotation Xrotation
					JOINT mixamorig:RightArm
					{
						OFFSET	-12.4361	-6.1894	-0.0647
						CHANNELS 3 Zrotation Yrotation Xrotation
						JOINT mixamorig:RightForeArm
						{
							OFFSET	-12.5822	-17.6989	0.1601
							CHANNELS 3 Zrotation Yrotation Xrotation
							JOINT mixamorig:RightHand
							{
								OFFSET	-10.9147	-21.0687	11.5252
								CHANNELS 3 Zrotation Yrotation Xrotation
								JOINT mixamorig:RightHandThumb1
								{
									OFFSET	1.8326	-3.8313	2.8102
									CHANNELS 3 Zrotation Yrotation Xrotation
									JOINT mixamorig:RightHandThumb2
									{
										OFFSET	1.4660	-3.0650	2.2481
										CHANNELS 3 Zrotation Yrotation Xrotation
										JOINT mixamorig:RightHandThumb3
										{
											OFFSET	1.7022	-3.2799	1.5927
											CHANNELS 3 Zrotation Yrotation Xrotation
											End Site
											{
												OFFSET 0.9222 -2.4964 1.2260
											}
										}
									}
								}
								JOINT mixamorig:RightHandIndex1
								{
									OFFSET	-1.2113	-11.6910	7.5909
									CHANNELS 3 Zrotation Yrotation Xrotation
									JOINT mixamorig:RightHandIndex2
									{
										OFFSET	0.1340	-2.2478	1.0804
										CHANNELS 3 Zrotation Yrotation Xrotation
										JOINT mixamorig:RightHandIndex3
										{
											OFFSET	0.2833	-1.9852	0.4907
											CHANNELS 3 Zrotation Yrotation Xrotation
											End Site
											{
												OFFSET 0.2347 -2.6272 0.4660
											}
										}
									}
								}
								JOINT mixamorig:RightHandMiddle1
								{
									OFFSET	-3.1183	-12.4952	5.5338
									CHANNELS 3 Zrotation Yrotation Xrotation
									JOINT mixamorig:RightHandMiddle2
									{
										OFFSET	-0.3657	-2.5472	0.7803
										CHANNELS 3 Zrotation Yrotation Xrotation
										JOINT mixamorig:RightHandMiddle3
										{
											OFFSET	0.0506	-2.2906	0.2557
											CHANNELS 3 Zrotation Yrotation Xrotation
											End Site
											{
												OFFSET -0.1704 -2.9156 0.4516
											}
										}
									}
								}
								JOINT mixamorig:RightHandRing1
								{
									OFFSET	-4.3615	-12.5986	2.8743
									CHANNELS 3 Zrotation Yrotation Xrotation
									JOINT mixamorig:RightHandRing2
									{
										OFFSET	0.0394	-2.4666	-0.2159
										CHANNELS 3 Zrotation Yrotation Xrotation
										JOINT mixamorig:RightHandRing3
										{
											OFFSET	0.4323	-2.1153	-0.2184
											CHANNELS 3 Zrotation Yrotation Xrotation
											End Site
											{
												OFFSET 0.0751 -2.6586 -0.0626
											}
										}
									}
								}
								JOINT mixamorig:RightHandPinky1
								{
									OFFSET	-4.4132	-11.5032	0.4194
									CHANNELS 3 Zrotation Yrotation Xrotation
									JOINT mixamorig:RightHandPinky2
									{
										OFFSET	-0.1665	-2.1237	-0.7208
										CHANNELS 3 Zrotation Yrotation Xrotation
										JOINT mixamorig:RightHandPinky3
										{
											OFFSET	0.5102	-1.7553	-0.6317
											CHANNELS 3 Zrotation Yrotation Xrotation
											End Site
											{
												OFFSET 0.3407 -2.2265 -0.9448
											}
										}
									}
								}
							}
						}
					}
				}
			}
		}
	}
	JOINT mixamorig:LeftUpLeg
	{
		OFFSET	10.1286	-5.8029	-0.5827
		CHANNELS 3 Zrotation Yrotation Xrotation
		JOINT mixamorig:LeftLeg
		{
			OFFSET	4.2353	-40.9156	0.1368
			CHANNELS 3 Zrotation Yrotation Xrotation
			JOINT mixamorig:LeftFoot
			{
				OFFSET	2.7471	-36.6710	-5.9597
				CHANNELS 3 Zrotation Yrotation Xrotation
				JOINT mixamorig:LeftToeBase
				{
					OFFSET	2.4527	-12.3426	15.4410
					CHANNELS 3 Zrotation Yrotation Xrotation
					End Site
					{
						OFFSET 1.4532 0.2140 7.5769
					}
				}
			}
		}
	}
	JOINT mixamorig:RightUpLeg
	{
		OFFSET	-10.0150	-5.8029	-0.7207
		CHANNELS 3 Zrotation Yrotation Xrotation
		JOINT mixamorig:RightLeg
		{
			OFFSET	-4.2353	-40.9157	0.2580
			CHANNELS 3 Zrotation Yrotation Xrotation
			JOINT mixamorig:RightFoot
			{
				OFFSET	-2.7471	-36.6708	-6.0475
				CHANNELS 3 Zrotation Yrotation Xrotation
				JOINT mixamorig:RightToeBase
				{
					OFFSET	-2.4527	-12.3428	15.3607
					CHANNELS 3 Zrotation Yrotation Xrotation
					End Site
					{
						OFFSET -1.4532 0.2139 7.5074
					}
				}
			}
		}
	}
}
MOTION
Frames: 7
Frame Time: 0.0333333
-1.2589 96.4803 0.6503 -1.2569 -0.0485 -0.3785 0.1831 -0.2611 -0.0873 0.0256 -2.0667 -0.4204 0.0272 -2.0605 -0.4245 -1.3394 1.6039 -1.6877 2.2101 -0.6202 9.2690 12.8388 12.0019 1.6735 -28.6109 -15.1851 11.4827 7.6690 -1.6612 -4.8526 1.9660 8.5321 10.8226 2.3788 15.2912 5.9056 12.5306 2.1833 4.0441 -0.4090 0.4787 -1.5026 -3.6964 -0.0115 9.3127 -18.5438 -5.7175 9.0355 -13.8998 -3.3597 5.9591 -19.3131 -4.7618 5.0521 -6.7272 -1.0135 2.2608 -19.1365 -0.6408 10.7541 -17.1109 -5.5870 -10.9789 -0.7763 -0.1816 3.0754 -16.8136 1.3523 11.9999 -15.0415 -4.9777 -19.5434 -7.0399 0.9910 5.7726 -0.0217 0.2865 -0.7292 -17.0301 -2.4431 0.6866 36.2775 18.3301 11.7059 -7.6166 0.0963 -1.9461 -7.1416 -24.5155 3.8300 -14.0859 -0.1610 18.9297 -3.5546 0.2473 -7.8931 4.2792 1.2949 -2.3649 -9.9997 -4.1721 10.5306 23.2529 6.7571 12.6538 10.1853 2.1978 2.4990 6.3754 1.2104 7.7561 11.8031 1.6859 4.6714 9.7008 -1.1931 6.0213 7.2312 3.5445 -11.0330 4.1709 0.2622 9.0376 16.4510 -3.4461 9.1203 19.6855 7.7576 -16.5252 -5.8857 3.1269 6.4350 12.5745 -4.8228 0.0828 -1.8255 2.7379 -10.5658 4.9889 10.3846 17.6833 -0.0751 1.9789 -6.7529 0.0000 0.0000 -0.0498 1.9519 -12.5073 -11.1304 -2.7594 -6.1268 13.5560 0.8589 -3.5704 -2.0636 -0.0000 -0.0000 -0.1142 
-0.8792 96.4523 0.5965 -1.3670 -0.2914 -0.4468 0.1815 -0.2449 -0.0449 -0.0007 -2.0459 -0.3529 0.0023 -2.0401 -0.3564 -1.2601 1.5477 -1.6626 2.3106 -0.6737 9.3533 12.7171 11.9744 1.6605 -28.4672 -15.5873 11.4181 7.6653 -1.5918 -4.7205 1.8698 8.7004 10.9068 2.3898 15.2943 5.9175 12.5111 2.2051 4.0328 -0.4197 0.4800 -1.5164 -3.7874 -0.0353 9.4656 -18.6068 -5.7301 9.0842 -14.0104 -3.3798 6.0415 -19.4283 -4.7620 5.1625 -6.8271 -1.0228 2.3226 -19.0924 -0.6439 10.7272 -17.2019 -5.5951 -10.9531 -0.8605 -0.1756 3.1237 -16.7930 1.3486 11.9886 -15.3653 -4.9969 -19.4145 -7.2111 1.0385 5.8688 -0.0224 0.2866 -0.7288 -16.8732 -2.2744 0.6666 36.1861 18.2765 11.4479 -7.6165 0.0704 -1.8969 -7.0922 -24.5820 3.7381 -14.2926 0.0057 19.0512 -3.2954 0.0838 -8.0380 4.3580 1.2961 -2.4725 -10.0601 -4.1845 10.6083 23.4082 6.7772 12.7946 10.1460 2.1897 2.4651 6.7375 1.2574 8.1676 11.7448 1.6833 4.6281 9.5874 -1.2526 5.9314 7.5079 3.5901 -10.6717 4.0450 0.2779 8.9526 16.3534 -3.4991 9.0654 20.1056 7.7429 -16.0512 -5.8410 3.1130 6.4640 12.4036 -4.7669 -0.0111 -1.9591 2.5778 -10.6415 4.9812 10.4060 18.0523 0.1542 2.3420 -7.0281 -0.0000 0.0000 -0.0665 1.8265 -12.6877 -11.1058 -2.7474 -5.9683 13.4261 1.0575 -3.3642 -1.8159 -0.0000 0.0000 -0.2383 
-0.4897 96.4069 0.5327 -1.4661 -0.5388 -0.5313 0.1724 -0.2223 0.0099 -0.0330 -2.0246 -0.2655 -0.0283 -2.0194 -0.2682 -1.1734 1.4835 -1.6517 2.4436 -0.7475 9.3938 12.5863 11.8699 1.6378 -28.3496 -16.1849 11.3903 7.6609 -1.5058 -4.5570 1.7338 8.9822 10.9469 2.3856 15.2957 5.9043 12.5166 2.1972 4.0373 -0.4136 0.4765 -1.4999 -3.8634 -0.0546 9.5643 -18.7084 -5.7503 9.1629 -14.1484 -3.4047 6.1443 -19.5152 -4.7642 5.2330 -6.9588 -1.0349 2.4040 -19.0593 -0.6462 10.7070 -17.2661 -5.6010 -10.9401 -0.9614 -0.1684 3.1815 -16.7774 1.3457 11.9801 -15.6514 -5.0150 -19.2851 -7.3945 1.0898 5.9717 -0.0224 0.2866 -0.7288 -16.6719 -2.0174 0.6397 36.0370 18.3006 11.1440 -7.6164 0.0347 -1.8291 -7.0218 -24.7264 3.6625 -14.4268 0.1725 19.1775 -3.0852 -0.0495 -8.1572 4.4231 1.2966 -2.5637 -10.0601 -4.1749 10.7062 23.5637 6.7970 12.9357 10.0895 2.1780 2.4164 6.8241 1.2626 8.3312 11.9391 1.6920 4.7726 9.5322 -1.2483 5.8909 7.5676 3.6021 -10.5249 4.2674 0.2500 9.1026 16.3293 -3.4935 9.0489 20.2288 7.7359 -15.8567 -5.6737 3.0608 6.5725 12.3664 -4.7548 -0.0316 -2.1174 2.4676 -10.7510 5.0057 10.4212 18.5038 0.3765 2.6561 -7.3353 0.0000 -0.0000 -0.0845 1.6790 -12.8705 -11.1305 -2.7464 -5.8058 13.4160 1.2710 -3.1445 -1.6181 0.0000 -0.0000 -0.2934 
-0.0924 96.3464 0.4620 -1.5597 -0.7819 -0.6277 0.1548 -0.1932 0.0758 -0.0729 -2.0034 -0.1601 -0.0665 -1.9989 -0.1617 -1.0748 1.4096 -1.6518 2.6245 -0.8487 9.3936 12.4700 11.6748 1.6058 -28.2744 -16.9763 11.4045 7.6562 -1.4072 -4.3696 1.5665 9.3646 10.9337 2.3628 15.2947 5.8623 12.5558 2.1506 4.0620 -0.3860 0.4680 -1.4477 -3.8996 -0.0633 9.5891 -18.8728 -5.7827 9.2901 -14.3263 -3.4364 6.2768 -19.5366 -4.7647 5.2505 -7.1388 -1.0512 2.5153 -19.0474 -0.6470 10.6998 -17.2656 -5.6007 -10.9341 -1.0855 -0.1592 3.2527 -16.7717 1.3446 11.9769 -15.8346 -5.0332 -19.1526 -7.5884 1.1445 6.0804 -0.0218 0.2865 -0.7292 -16.4015 -1.6369 0.6053 35.7866 18.3890 10.8297 -7.6164 0.0077 -1.7780 -6.9258 -24.9557 3.5920 -14.4634 0.2963 19.2772 -2.9730 -0.1215 -8.2221 4.4593 1.2962 -2.6168 -10.0145 -4.1516 10.7901 23.7326 6.8180 13.0889 10.0318 2.1660 2.3666 6.6517 1.2315 8.2379 12.3739 1.7097 5.0961 9.5454 -1.1856 5.9068 7.4363 3.5839 -10.5945 4.8130 0.1790 9.4703 16.3800 -3.4345 9.0724 20.0894 7.7379 -15.9378 -5.4233 2.9819 6.7348 12.4631 -4.7863 0.0216 -2.2958 2.4197 -10.8946 5.0640 10.4266 19.0268 0.5910 2.9114 -7.6687 -0.0000 -0.0000 -0.0938 1.5156 -13.0350 -11.1927 -2.7580 -5.6559 13.5024 1.4996 -2.9215 -1.4626 0.0000 -0.0000 -0.2831 
0.3106 96.2729 0.3862 -1.6521 -1.0150 -0.7291 0.1295 -0.1583 0.1505 -0.1208 -1.9837 -0.0406 -0.1124 -1.9801 -0.0407 -0.9630 1.3260 -1.6563 2.8504 -0.9778 9.3555 12.3795 11.3990 1.5665 -28.2459 -17.9320 11.4548 7.6515 -1.3033 -4.1721 1.3763 9.8154 10.8646 2.3215 15.2906 5.7941 12.6313 2.0634 4.1077 -0.3356 0.4550 -1.3607 -3.8788 -0.0578 9.5470 -19.1095 -5.8286 9.4734 -14.5486 -3.4755 6.4425 -19.4712 -4.7590 5.2213 -7.3730 -1.0719 2.6602 -19.0613 -0.6460 10.7082 -17.1795 -5.5919 -10.9249 -1.2350 -0.1481 3.3383 -16.7781 1.3458 11.9805 -15.8818 -5.0531 -19.0115 -7.7913 1.2020 6.1940 -0.0206 0.2863 -0.7298 -16.0516 -1.1204 0.5644 35.4102 18.5371 10.5376 -7.6163 0.0070 -1.7766 -6.8119 -25.2416 3.5195 -14.4143 0.3458 19.3250 -2.9728 -0.1231 -8.2240 4.4619 1.2951 -2.6235 -9.9570 -4.1304 10.8142 23.9355 6.8426 13.2729 9.9959 2.1585 2.3357 6.3113 1.1787 7.9421 12.9637 1.7298 5.5351 9.6191 -1.0903 5.9705 7.2015 3.5474 -10.8256 5.5521 0.0771 9.9679 16.4822 -3.3459 9.1245 19.8055 7.7460 -16.2147 -4.9970 2.8459 7.0107 12.6475 -4.8467 0.1229 -2.4857 2.4314 -11.0723 5.1475 10.4245 19.6068 0.8014 3.1117 -8.0222 -0.0000 0.0000 -0.0895 1.3441 -13.1695 -11.2852 -2.7871 -5.5335 13.6616 1.7440 -2.6965 -1.3395 -0.0000 0.0000 -0.2132 
0.7170 96.1884 0.3054 -1.7447 -1.2358 -0.8268 0.0980 -0.1195 0.2310 -0.1755 -1.9678 0.0881 -0.1650 -1.9651 0.0897 -0.8392 1.2347 -1.6568 3.0992 -1.1261 9.2838 12.3163 11.0692 1.5232 -28.2597 -18.9870 11.5240 7.6473 -1.2038 -3.9829 1.1731 10.2897 10.7387 2.2657 15.2833 5.7076 12.7385 1.9409 4.1712 -0.2650 0.4389 -1.2454 -3.7884 -0.0354 9.4605 -19.4146 -5.8867 9.7097 -14.8126 -3.5210 6.6394 -19.3162 -4.7436 5.1617 -7.6574 -1.0962 2.8363 -19.1005 -0.6433 10.7322 -17.0124 -5.5746 -10.9048 -1.4073 -0.1349 3.4370 -16.7967 1.3492 11.9906 -15.8078 -5.0756 -18.8583 -8.0014 1.2621 6.3116 -0.0198 0.2862 -0.7303 -15.6306 -0.4827 0.5201 34.9129 18.7456 10.2875 -7.6164 0.0423 -1.8435 -6.6959 -25.5353 3.4412 -14.3192 0.3096 19.3074 -3.0660 -0.0666 -8.1737 4.4362 1.2942 -2.5891 -9.9225 -4.1260 10.7433 24.1879 6.8723 13.5019 9.9998 2.1593 2.3390 5.9376 1.1254 7.5448 13.5812 1.7460 5.9947 9.7281 -0.9982 6.0600 6.9797 3.5095 -11.1265 6.3019 -0.0330 10.4718 16.5971 -3.2599 9.1851 19.5350 7.7565 -16.5626 -4.5638 2.7053 7.2903 12.8471 -4.9124 0.2324 -2.6783 2.4852 -11.2855 5.2406 10.4223 20.2295 1.0144 3.2733 -8.3894 0.0000 -0.0000 -0.0720 1.1716 -13.2807 -11.4099 -2.8378 -5.4451 13.8756 2.0031 -2.4582 -1.2391 0.0000 0.0000 -0.0960 
1.1246 96.0961 0.2181 -1.8382 -1.4468 -0.9122 0.0636 -0.0792 0.3143 -0.2344 -1.9571 0.2212 -0.2216 -1.9555 0.2247 -0.7064 1.1395 -1.6453 3.3394 -1.2763 9.1859 12.2763 10.7156 1.4793 -28.3060 -20.0473 11.5864 7.6441 -1.1189 -3.8217 0.9683 10.7406 10.5556 2.2015 15.2736 5.6129 12.8675 1.7937 4.2470 -0.1792 0.4210 -1.1113 -3.6192 0.0057 9.3499 -19.7748 -5.9536 9.9889 -15.1117 -3.5714 6.8626 -19.0842 -4.7181 5.0848 -7.9816 -1.1228 3.0370 -19.1616 -0.6390 10.7694 -16.7920 -5.5514 -10.8761 -1.5972 -0.1201 3.5458 -16.8261 1.3546 12.0067 -15.6702 -5.1001 -18.6957 -8.2169 1.3242 6.4319 -0.0200 0.2862 -0.7302 -15.1631 0.2414 0.4766 34.3287 19.0122 10.0797 -7.6166 0.1124 -1.9766 -6.5934 -25.7900 3.3535 -14.2264 0.1954 19.2248 -3.2137 0.0234 -8.0938 4.3939 1.2944 -2.5276 -9.9286 -4.1444 10.5741 24.4878 6.9063 13.7740 10.0435 2.1684 2.3767 5.6783 1.0959 7.1740 14.0956 1.7557 6.3776 9.8343 -0.9428 6.1438 6.8838 3.4888 -11.3919 6.8859 -0.1234 10.8637 16.6831 -3.2068 9.2322 19.4312 7.7669 -16.8440 -4.2186 2.5916 7.5128 12.9893 -4.9595 0.3104 -2.8651 2.5583 -11.5314 5.3258 10.4294 20.8734 1.2365 3.4202 -8.7599 0.0000 -0.0000 -0.0441 1.0058 -13.3936 -11.5699 -2.9086 -5.3821 14.1231 2.2714 -2.1910 -1.1467 0.0000 -0.0000 -0.0000 
